<?xml version="1.0" standalone="no"?>
<!DOCTYPE svg PUBLIC "-//W3C//DTD SVG 20010904//EN"
 "http://www.w3.org/TR/2001/REC-SVG-20010904/DTD/svg10.dtd">
<svg version="1.0" xmlns="http://www.w3.org/2000/svg"
 width="410.000000pt" height="140.000000pt" viewBox="0 0 410.000000 140.000000"
 preserveAspectRatio="xMidYMid meet">

<g transform="translate(0.000000,140.000000) scale(0.100000,-0.100000)"
fill="#000000" stroke="none">
<path d="M3301 1384 c-160 -43 -281 -178 -281 -314 l0 -40 -45 0 -45 0 0 -80
0 -80 45 0 45 0 0 -305 0 -305 95 0 95 0 0 305 0 306 102 -3 101 -3 93 -174
94 -173 -135 -252 c-74 -139 -135 -256 -135 -260 0 -3 48 -5 107 -4 l107 3
138 256 137 256 -137 256 -137 257 -167 0 -168 0 0 30 c0 71 54 139 130 161
l40 12 0 84 c0 93 4 89 -79 67z"/>
<path d="M2416 1049 c-109 -26 -225 -121 -274 -227 -24 -51 -27 -69 -27 -167
0 -99 3 -116 27 -168 38 -80 117 -161 197 -200 61 -29 74 -32 166 -32 89 0
107 3 159 28 33 15 79 43 102 62 39 32 104 118 104 137 0 4 -47 8 -104 8 -93
0 -110 -3 -152 -25 -51 -27 -139 -34 -191 -14 -35 13 -80 55 -99 92 l-15 27
295 0 c331 0 306 -7 306 83 0 61 -19 136 -48 192 -80 155 -274 244 -446 204z
m157 -190 c43 -12 101 -59 123 -100 l15 -29 -201 0 c-110 0 -200 4 -200 8 0
21 61 90 91 104 68 31 108 35 172 17z"/>
<path d="M330 1044 c-8 -3 -43 -17 -77 -31 l-63 -25 -17 21 c-16 20 -26 22
-93 19 l-75 -3 0 -510 0 -510 93 -3 92 -3 0 161 c0 88 2 160 4 160 3 0 20 -9
38 -19 96 -56 238 -65 351 -21 80 30 167 113 209 198 31 62 33 73 33 172 0 97
-2 110 -31 170 -41 86 -108 153 -192 193 -59 28 -78 32 -162 34 -52 1 -102 0
-110 -3z m209 -208 c118 -82 131 -248 27 -344 -145 -134 -366 -36 -366 162 0
64 22 116 67 157 52 49 82 59 159 57 60 -3 78 -8 113 -32z"/>
<path d="M1535 1043 c-11 -2 -47 -17 -79 -31 l-59 -26 -15 22 c-13 20 -23 22
-93 22 l-79 0 0 -515 0 -515 95 0 95 0 0 160 c0 88 3 160 8 160 4 0 16 -7 27
-16 33 -25 144 -54 205 -54 226 0 413 199 398 423 -3 39 -15 98 -28 130 -30
80 -113 167 -198 209 -60 30 -76 33 -162 35 -52 1 -104 -1 -115 -4z m184 -193
c84 -42 140 -148 124 -232 -32 -172 -225 -245 -358 -136 -120 100 -100 299 37
367 57 28 144 28 197 1z"/>
<path d="M920 645 l0 -385 95 0 95 0 -2 383 -3 382 -92 3 -93 3 0 -386z"/>
<path d="M3873 1018 c-5 -7 -33 -57 -62 -111 l-52 -98 53 -99 c29 -55 55 -96
59 -92 9 8 206 373 215 396 5 14 -8 16 -99 16 -72 0 -108 -4 -114 -12z"/>
</g>
</svg>
